<?xml version="1.0" encoding="UTF-8" standalone="no"?>
<!DOCTYPE svg PUBLIC "-//W3C//DTD SVG 1.1//EN" "http://www.w3.org/Graphics/SVG/1.1/DTD/svg11.dtd">
<!-- Created with Vectornator (http://vectornator.io/) -->
<svg height="100%" stroke-miterlimit="10" style="fill-rule:nonzero;clip-rule:evenodd;stroke-linecap:round;stroke-linejoin:round;" version="1.1" viewBox="0 0 595.35 595.35" width="100%" xml:space="preserve" xmlns="http://www.w3.org/2000/svg" xmlns:vectornator="http://vectornator.io" xmlns:xlink="http://www.w3.org/1999/xlink">
<defs/>
<clipPath id="ArtboardFrame">
<rect height="595.35" width="595.35" x="0" y="0"/>
</clipPath>
<g clip-path="url(#ArtboardFrame)" id="Capa-1" vectornator:layerName="Capa 1">
<path d="M657.036-606.188C650.252-607.076 643.116-605.309 637.263-600.811L546.725-531.26L524.524-514.262C524.481-514.23 524.565-514.122 524.524-514.089L522.79-512.875L519.148-510.1L510.649-503.509L505.966-499.866C505.898-499.814 505.859-499.745 505.792-499.693L386.463-406.553C379.986-401.5 376.277-393.781 376.229-385.567L376.056-369.263C376.028-365.542 379.098-362.523 382.82-362.498L423.059-362.152C426.795-362.127 429.824-365.182 429.824-368.916C429.824-370.988 430.792-373.017 432.425-374.293L551.928-467.606L557.132-471.421L639.171-533.861L649.924-542.187C652.333-544.02 655.84-544.019 658.25-542.187L862.567-386.781C864.247-385.502 865.177-383.516 865.169-381.404L864.128-98.5163C864.115-94.8075 861.074-91.752 857.364-91.752L381.78-91.752C378.061-91.752 375.016-88.7059 375.015-84.9877L375.015-44.9221C375.015-41.2038 378.061-38.1592 381.78-38.1577L442.312-38.1577C452.683-15.6843 475.015 2.05752e-05 501.456 0C527.9 0.000371403 550.344-15.6802 560.774-38.1577L723.465-38.1577C733.835-15.6804 756.165 2.05775e-05 782.609 0C809.056 0.000371444 831.672-15.6762 842.101-38.1577L891.012-38.1577C905.804-38.1577 917.85-50.0766 917.896-64.8681L918.937-397.881C918.962-406.296 915.054-414.12 908.356-419.215L670.391-600.291L668.83-601.505C668.804-601.378 668.683-601.284 668.656-601.158C665.093-603.65 661.244-605.637 657.036-606.188ZM496.253-343.94C466.718-343.94 445.686-334.971 430.691-305.435L430.691-330.411C430.691-334.677 427.325-338.043 423.059-338.043L382.994-338.043C378.728-338.043 375.362-334.678 375.362-330.411L375.362-122.278C375.362-118.012 378.728-114.473 382.994-114.473L426.702-114.473C430.968-114.473 434.333-118.012 434.333-122.278L434.333-250.453C434.333-279.534 446.608-293.988 470.236-293.988C496.136-293.988 505.792-284.963 505.792-249.066L505.792-122.278C505.792-118.012 509.158-114.473 513.424-114.473L557.132-114.473C561.398-114.473 564.763-118.012 564.763-122.278L564.763-248.199C564.763-275.462 580.764-295.896 602.574-295.896C623.476-295.896 637.436-276.742 637.436-249.933L637.436-122.278C637.436-118.012 640.975-114.473 645.241-114.473L687.562-114.473C691.828-114.473 695.193-118.012 695.193-122.278L695.193-269.532C695.193-311.336 663.862-343.94 618.878-343.94C590.706-343.94 570.788-333.094 558.519-308.557C541.253-334.457 526.697-343.94 496.253-343.94Z" fill="#8cc134" fill-rule="nonzero" opacity="1" stroke="#000000" stroke-linecap="butt" stroke-linejoin="round" stroke-opacity="0" stroke-width="487.813" vectornator:layerName="Curva 1"/>
<g opacity="1" vectornator:layerName="Grupo 2">
<path d="M135.106 341.425C136.78 341.425 138.138 340.067 138.138 338.392L138.138 280.596C138.138 264.185 125.83 251.341 108.17 251.341C97.1101 251.341 89.2612 255.622 84.4449 265.255C77.6664 255.087 71.9581 251.341 60.0065 251.341C48.4116 251.341 40.206 254.909 34.3193 266.504L34.3193 256.693C34.3193 255.018 32.9616 253.66 31.2868 253.66L15.5891 253.66C13.9143 253.66 12.5566 255.018 12.5566 256.693L12.5566 338.392C12.5566 340.067 13.9143 341.425 15.5891 341.425L32.7139 341.425C34.3887 341.425 35.7464 340.067 35.7464 338.392L35.7464 288.088C35.7464 276.672 40.5627 270.963 49.8386 270.963C60.0065 270.963 63.7525 274.531 63.7525 288.623L63.7525 338.392C63.7525 340.067 65.1102 341.425 66.785 341.425L83.9098 341.425C85.5846 341.425 86.9423 340.067 86.9423 338.392L86.9423 288.98C86.9423 278.277 93.1857 270.25 101.748 270.25C109.954 270.25 115.484 277.742 115.484 288.266L115.484 338.392C115.484 340.067 116.841 341.425 118.516 341.425L135.106 341.425Z" fill="#cbb57b" fill-rule="nonzero" opacity="1" stroke="none" vectornator:layerName="Curva 2"/>
<path d="M167.75 341.425C169.424 341.425 170.782 340.067 170.782 338.392L170.782 256.693C170.782 255.018 169.424 253.66 167.75 253.66L150.625 253.66C148.95 253.66 147.592 255.018 147.592 256.693L147.592 338.392C147.592 340.067 148.95 341.425 150.625 341.425L167.75 341.425ZM167.75 243.136C169.424 243.136 170.782 241.778 170.782 240.103L170.782 224.584C170.782 222.909 169.424 221.551 167.75 221.551L150.625 221.551C148.95 221.551 147.592 222.909 147.592 224.584L147.592 240.103C147.592 241.778 148.95 243.136 150.625 243.136L167.75 243.136Z" fill="#cbb57b" fill-rule="nonzero" opacity="1" stroke="none"/>
<path d="M257.833 341.425C259.508 341.425 260.865 340.067 260.865 338.392L260.865 280.596C260.865 261.509 248.557 251.341 231.789 251.341C217.697 251.341 208.778 256.693 203.426 266.504L203.426 256.693C203.426 255.018 202.069 253.66 200.394 253.66L184.339 253.66C182.664 253.66 181.307 255.018 181.307 256.693L181.307 338.392C181.307 340.067 182.664 341.425 184.339 341.425L201.464 341.425C203.139 341.425 204.497 340.067 204.497 338.392L204.497 291.121C204.497 277.742 210.383 270.963 222.513 270.963C233.573 270.963 237.497 274.709 237.497 288.266L237.497 338.392C237.497 340.067 238.855 341.425 240.53 341.425L257.833 341.425Z" fill="#cbb57b" fill-rule="nonzero" opacity="1" stroke="none"/>
<path d="M291.726 341.425C293.401 341.425 294.758 340.067 294.758 338.392L294.758 256.693C294.758 255.018 293.401 253.66 291.726 253.66L274.601 253.66C272.926 253.66 271.568 255.018 271.568 256.693L271.568 338.392C271.568 340.067 272.926 341.425 274.601 341.425L291.726 341.425ZM291.726 243.136C293.401 243.136 294.758 241.778 294.758 240.103L294.758 224.584C294.758 222.909 293.401 221.551 291.726 221.551L274.601 221.551C272.926 221.551 271.568 222.909 271.568 224.584L271.568 240.103C271.568 241.778 272.926 243.136 274.601 243.136L291.726 243.136Z" fill="#cbb57b" fill-rule="nonzero" opacity="1" stroke="none"/>
<g opacity="1" vectornator:layerName="Grupo 1">
<path d="M379.561 205.922C381.487 206.821 383.092 207.848 384.376 209.004C387.522 211.636 388.453 214.717 387.169 218.248C386.848 219.34 386.27 220.72 385.436 222.389C383.831 225.342 380.845 233.11 376.48 245.693C373.142 256.157 369.483 268.531 365.502 282.815C361.522 297.098 358.376 309.344 356.065 319.551C354.717 325.329 353.802 329.823 353.321 333.033C352.839 336.243 352.631 338.634 352.695 340.207C352.759 341.78 352.888 343.016 353.08 343.914C353.144 344.171 353.144 344.396 353.08 344.588C353.401 346.129 353.337 347.574 352.888 348.922C352.438 350.27 351.283 351.393 349.421 352.292C347.367 353.255 344.735 353.704 341.525 353.64C338.315 353.576 335.233 352.517 332.28 350.462C329.327 348.665 327.241 344.974 326.021 339.388C324.801 333.803 325.283 325.008 327.465 313.003C330.033 299.971 333.837 285.238 338.877 268.804C343.916 252.369 348.586 238.567 352.888 227.396C355.455 220.463 357.638 215.263 359.436 211.796C360.848 209.164 362.1 207.206 363.191 205.922C352.342 205.858 343.097 205.987 335.458 206.308C328.525 206.693 323.469 207.383 320.291 208.378C317.114 209.373 315.059 210.545 314.128 211.893C313.198 213.241 312.668 214.685 312.54 216.226C312.475 216.29 312.443 216.354 312.443 216.419C311.994 218.794 311.416 220.88 310.71 222.678C310.004 224.475 308.977 225.246 307.629 224.989C306.216 224.604 304.627 223.031 302.862 220.27C301.096 217.51 299.796 214.011 298.962 209.774C298.127 205.345 298.545 200.915 300.214 196.485C301.883 192.056 305.638 188.653 311.48 186.278C316.552 184.545 322.94 183.598 330.643 183.437C338.347 183.277 346.725 183.389 355.776 183.774C360.013 183.903 364.315 184.031 368.68 184.16C392.818 184.545 412.463 183.614 427.613 181.367C434.739 180.019 439.843 178.735 442.924 177.515C445.62 176.488 447.611 176.071 448.894 176.263C450.435 176.713 451.494 177.997 452.072 180.115C452.65 182.234 452.457 184.866 451.494 188.011C450.852 191.221 448.413 194.399 444.176 197.545C439.939 200.69 432.139 203.001 420.776 204.478C413.586 205.248 405.305 205.698 395.932 205.826C390.475 205.89 385.018 205.922 379.561 205.922Z" fill="#8cc134" fill-rule="nonzero" opacity="1" stroke="none"/>
<path d="M404.502 309.922C405.593 306.134 406.813 301.994 408.161 297.5C411.628 286.458 415.319 276.668 419.235 268.13C423.087 260.233 426.875 254.841 430.598 251.952C434.322 249.063 438.109 247.907 441.961 248.485C446.134 249.063 449.89 250.844 453.228 253.83C456.566 256.815 458.428 260.554 458.813 265.048C458.813 268.579 457.946 272.254 456.213 276.074C454.48 279.894 452.586 283.537 450.531 287.003C449.44 288.994 448.445 290.855 447.546 292.589C446.134 295.478 445.203 297.885 444.754 299.811C444.304 301.737 444.015 303.374 443.887 304.722C443.887 305.364 443.823 305.974 443.694 306.552C443.309 309.633 441.833 311.302 439.265 311.559C436.569 311.944 433.487 309.858 430.02 305.3C428.416 302.989 427.437 300.677 427.083 298.366C426.73 296.055 426.939 293.134 427.709 289.603C428.608 285.88 429.764 282.124 431.176 278.337C432.588 274.421 433.455 271.404 433.776 269.285C433.969 267.231 433.327 266.749 431.85 267.841C430.374 268.932 428.255 272.206 425.495 277.663C422.67 283.633 419.621 290.839 416.346 299.281C413.072 307.723 410.376 315.026 408.258 321.188C406.909 325.361 405.947 328.475 405.369 330.529C404.342 333.996 403.764 335.986 403.635 336.5C403.314 337.783 402.351 338.843 400.747 339.677C398.949 340.64 396.622 341.122 393.765 341.122C390.908 341.122 388.1 340.223 385.339 338.425C382.579 336.692 380.428 333.627 378.887 329.229C377.347 324.832 376.897 318.781 377.539 311.077C378.374 302.86 380.107 293.921 382.739 284.259C385.371 274.597 388.003 266.46 390.636 259.848C393.139 253.814 395.418 249.946 397.473 248.244C399.527 246.543 401.517 245.725 403.443 245.789C405.561 245.596 407.889 245.805 410.424 246.415C412.96 247.025 415.223 248.004 417.213 249.352C419.524 250.957 420.728 252.337 420.824 253.493C420.921 254.648 420.359 256.446 419.139 258.885C417.342 261.967 415.159 267.744 412.591 276.218C410.858 282.06 409.092 288.801 407.295 296.44C406.203 301.384 405.272 305.877 404.502 309.922Z" fill="#8cc134" fill-rule="nonzero" opacity="1" stroke="none"/>
<path d="M494.924 235.678C493.833 235.678 492.677 235.517 491.457 235.196C489.403 234.811 487.477 234.105 485.679 233.078C482.855 231.601 481.442 229.483 481.442 226.722C481.442 224.475 482.438 221.266 484.428 217.093C485.262 215.103 486.257 213.401 487.413 211.989C489.146 209.742 492.067 208.619 496.176 208.619C500.22 208.619 503.879 209.421 507.153 211.026C509.465 212.246 510.62 214.011 510.62 216.322C510.62 217.35 510.395 218.505 509.946 219.789C509.24 221.972 508.213 224.299 506.865 226.77C505.516 229.242 504.008 231.28 502.339 232.885C500.028 234.747 497.556 235.678 494.924 235.678ZM471.62 338.618C465.457 338.618 460.482 335.569 456.694 329.47C453.998 325.233 452.618 319.391 452.554 311.944C452.875 304.176 454.367 295.799 457.031 286.811C459.696 277.823 462.44 270.28 465.265 264.181C467.897 258.596 470.208 255.001 472.198 253.396C474.188 251.791 476.21 250.989 478.265 250.989C480.768 250.989 483.304 251.358 485.872 252.096C488.44 252.835 490.526 253.749 492.131 254.841C495.02 256.702 496.465 258.211 496.465 259.367C496.465 260.458 495.791 261.999 494.442 263.989C492.452 266.685 489.916 271.949 486.835 279.781C484.909 285.238 483.079 291.401 481.346 298.27C479.292 306.487 478.265 312.618 478.265 316.663C478.265 319.872 478.939 321.477 480.287 321.477C481.507 321.477 482.983 320.37 484.717 318.155C486.45 315.94 488.087 313.164 489.628 309.826C491.618 305.46 493.191 301.705 494.346 298.559C494.988 296.826 495.55 295.494 496.031 294.563C496.513 293.632 497.139 292.942 497.909 292.492C498.423 292.171 499 292.011 499.642 292.011C499.707 292.011 499.947 292.027 500.365 292.059C500.782 292.091 501.183 292.589 501.568 293.552C501.761 294.065 501.857 294.803 501.857 295.766C501.857 299.554 500.349 305.235 497.331 312.811C494.956 318.653 492.067 323.885 488.665 328.507C483.208 335.248 477.526 338.618 471.62 338.618Z" fill="#8cc134" fill-rule="nonzero" opacity="1" stroke="none"/>
<path d="M520.539 305.589C520.41 307.643 520.539 309.729 520.924 311.848C521.951 315.7 524.005 318.797 527.087 321.14C530.168 323.484 533.506 324.013 537.101 322.729C540.696 321.124 544.067 317.834 547.212 312.859C550.358 307.884 552.99 302.571 555.109 296.922C559.217 285.559 560.79 276.7 559.827 270.344C559.442 267.263 558.303 265.53 556.409 265.144C554.515 264.759 551.706 266.492 547.983 270.344C544.131 274.774 539.701 280.52 534.694 287.581C529.751 294.45 525.225 300.26 521.116 305.011L520.539 305.589ZM514.664 320.514C511.519 332.455 509.015 342.759 507.153 351.425C506.062 357.781 505.484 362.74 505.42 366.303C505.356 369.866 505.452 372.482 505.709 374.151C505.966 375.885 505.902 377.152 505.516 377.955C505.131 378.757 503.911 379.608 501.857 380.507C492.934 384.808 486.386 384.439 482.213 379.399C478.04 374.36 477.815 363.334 481.539 346.322C482.887 340.929 484.171 335.793 485.391 330.914C491.104 307.803 495.903 289.876 499.787 277.133C503.671 264.39 507.763 255.755 512.065 251.23C516.366 246.704 521.983 245.147 528.916 246.559C534.18 247.394 537.101 248.469 537.679 249.785C538.257 251.101 537.39 253.846 535.079 258.018C533.731 260.651 532.158 264.181 530.361 268.611C529.59 270.344 528.852 272.238 528.146 274.292C531.356 269.349 534.566 264.92 537.775 261.004C544.195 252.722 551.321 248.26 559.153 247.619C563.326 247.233 567.563 248.036 571.864 250.026C576.165 252.016 579.632 255.579 582.264 260.715C584.896 266.043 586.196 272.607 586.164 280.407C586.132 288.207 584.704 296.087 581.879 304.048C578.99 312.008 574.914 319.006 569.649 325.04C564.385 331.075 558.479 335.216 551.931 337.462C545.383 339.388 539.011 339.308 532.816 337.222C526.621 335.135 521.758 331.845 518.227 327.351C516.687 325.169 515.499 322.89 514.664 320.514Z" fill="#8cc134" fill-rule="nonzero" opacity="1" stroke="none"/>
</g>
</g>
</g>
</svg>
